<svg t="1629817179237" class="icon" viewBox="0 0 1024 1024" version="1.1" xmlns="http://www.w3.org/2000/svg" p-id="3059" width="200" height="200"><path d="M385.044687 598.058667H95.988364c-20.048162 0-36.513616 16.610263-36.513617 36.845899v291.824485c0 20.229172 16.465455 36.845899 36.513617 36.845898h289.189495c20.05204 0 36.51103-16.616727 36.51103-36.845898V634.904566c-0.133172-20.236929-16.45899-36.845899-36.644202-36.845899z m0 0" p-id="3060"></path><path d="M385.044687 122.264566H95.988364C75.940202 122.264566 59.474747 138.882586 59.474747 159.111758v291.824484c0 20.235636 16.465455 36.847192 36.513617 36.847192h289.189495c20.05204 0 36.51103-16.611556 36.51103-36.847192V158.977293c-0.133172-20.227879-16.45899-36.712727-36.644202-36.712727z m0 0M696.142869 72.555313L491.801859 278.632727c-14.610101 14.735515-14.610101 37.779394 0 52.521374l204.34101 206.204121c14.603636 14.743273 37.444525 14.743273 52.048161 0l204.347475-206.204121c14.603636-14.74198 14.603636-37.785859 0-52.521374L747.258828 72.555313c-13.671434-14.736808-37.436768-14.736808-51.115959 0z m0 0" p-id="3061"></path><path d="M865.833374 598.058667h-289.189495c-20.053333 0-36.512323 16.610263-36.512323 36.845899v291.824485c0 20.229172 16.45899 36.845899 36.512323 36.845898h289.189495c20.046869 0 36.512323-16.616727 36.512323-36.845898V634.904566c0-20.236929-16.465455-36.845899-36.512323-36.845899z m0 0" p-id="3062"></path></svg>