<svg t="1642337005753" class="icon" viewBox="0 0 1024 1024" version="1.1" xmlns="http://www.w3.org/2000/svg" p-id="2908" width="200" height="200"><path d="M853.328213 320c0-70.4-55.893333-128-124.16-128s-124.074667 57.6-124.074666 128c0 57.6 37.205333 108.8 86.869333 121.6-6.229333 51.2-31.061333 89.6-68.266667 108.8-43.434667 25.6-99.328 25.6-148.906666 25.6-55.893333 0-111.786667 19.2-148.992 57.6v-384c55.893333-12.8 93.098667-64 93.098666-121.6C418.981547 57.6 363.088213 0 294.821547 0 226.55488 0 170.661547 57.6 170.661547 128c0 57.6 37.205333 108.8 93.013333 121.6V768A135.936 135.936 0 0 0 170.661547 896c0 70.4 55.893333 128 124.16 128s124.074667-57.6 124.074666-128c0-57.6-37.205333-108.8-93.013333-121.6V755.2A153.429333 153.429333 0 0 1 474.704213 640c49.578667 0 117.845333 0 179.968-32 55.808-32 86.869333-89.6 99.242667-160A129.962667 129.962667 0 0 0 853.328213 320zM232.69888 128c0-38.4 24.832-64 62.122667-64 37.205333 0 62.037333 25.6 62.037333 64s-24.832 64-62.037333 64c-37.290667 0-62.122667-25.6-62.122667-64z m124.16 768c0 38.4-24.832 64-62.037333 64-37.290667 0-62.122667-25.6-62.122667-64s24.832-64 62.122667-64c37.205333 0 62.037333 25.6 62.037333 64z m372.309333-512c-37.205333 0-62.037333-25.6-62.037333-64S692.048213 256 729.168213 256c37.290667 0 62.122667 25.6 62.122667 64s-24.832 64-62.122667 64z" opacity=".8" p-id="2909"></path></svg>