<svg t="1692933431566" class="icon" viewBox="0 0 1024 1024" version="1.1" xmlns="http://www.w3.org/2000/svg" p-id="7940" width="200" height="200"><path d="M857.857541 959.579805 206.832184 959.579805c-22.470781 0-40.689724-18.238386-40.689724-40.690748l0-162.756851-40.688701 0L125.453758 634.06508l40.688701 0 0-61.033052-40.688701 0L125.453758 450.966948l40.688701 0 0-61.035098-40.688701 0L125.453758 267.864724l40.688701 0L166.142459 105.108896c0-22.491247 18.21792-40.689724 40.689724-40.689724l651.025357 0c22.468734 0 40.686654 18.198477 40.686654 40.689724l0 813.780161C898.544195 941.341419 880.326275 959.579805 857.857541 959.579805zM552.689213 308.554448 308.55496 308.554448l0 40.688701 244.13323 0L552.688189 308.554448zM756.134765 491.654626 308.55496 491.654626l0 40.687678L756.134765 532.342304 756.134765 491.654626zM756.134765 674.755828 308.55496 674.755828l0 40.688701L756.134765 715.444529 756.134765 674.755828z" p-id="7941"></path></svg>