<svg t="1649776222689" class="icon" viewBox="0 0 1024 1024" version="1.1" xmlns="http://www.w3.org/2000/svg" p-id="10615" width="200" height="200"><path d="M873.633684 377.263158H150.366316C113.340632 377.263158 80.842105 408.737684 80.842105 444.631579v489.579789c0 35.893895 32.498526 67.368421 69.524211 67.368421h723.267368c37.025684 0 69.524211-31.474526 69.524211-67.368421V444.631579C943.157895 404.210526 910.659368 377.263158 873.633684 377.263158z m-324.554105 323.368421v107.789474c0 4.527158-4.634947 9.054316-9.269895 9.054315H479.555368c-4.634947 0-9.269895-4.527158-9.269894-9.054315v-107.789474c-27.809684-13.473684-46.349474-40.421053-46.349474-76.314947 0-22.689684 9.377684-44.463158 25.869474-60.469895A89.034105 89.034105 0 0 1 511.946105 538.947368c46.349474 0 88.117895 36.001684 88.117895 85.369264 0 35.893895-23.174737 62.841263-50.984421 76.314947zM361.094737 377.263158H285.642105V242.526316a226.357895 226.357895 0 1 1 452.71579 0V377.263158h-75.452632V242.526316a150.905263 150.905263 0 1 0-301.810526 0V377.263158z" p-id="10616"></path></svg>