<svg t="1642683891974" class="icon" viewBox="0 0 1024 1024" version="1.1" xmlns="http://www.w3.org/2000/svg" p-id="5176" width="200" height="200"><path d="M449.7 823.8c5 1.5 9.3 2.2 13.1 2.2 7.5 0 12.6-3 16.4-9.1l0.2-0.3 120.8-406.2 0.2-0.3c2.8-4.9 3.6-10.6 2.1-16-1.5-5.5-5-10-10-12.8-8.9-5.1-26.4 6.2-28.4 7.5l-0.8 0.6-120.7 405.5-0.2 0.3c-3.4 5.9-4.1 14-1.7 20.1 1.3 3 3.9 7 9 8.5zM688.2 728.4c0 5.7 2.2 11 6.3 15 4.2 4.1 9.7 6.2 15.3 6.2 5.6 0 11.2-2.1 15.5-6.4L870.2 625c3.9-3.9 6-9.6 5.7-16 0.3-6.2-1.8-11.9-6.1-16.1L725.5 475.1c-8.4-8.3-22.7-8.4-31-0.3-4.1 4-6.3 9.3-6.3 15 0 5.7 2.2 11 6.5 15.2l127.6 104.1-128.2 104.6c-3.8 3.7-5.9 9.1-5.9 14.7zM307.2 743c4.5 4.4 10.1 6.6 15.8 6.6 5.5 0 10.9-2.1 15.2-6.3 4.1-4 6.3-9.3 6.3-15 0-5.7-2.3-11-6.5-15.2l-127.6-104 128.1-104.6c3.8-3.8 6-9.1 6-14.7 0-5.7-2.3-11-6.4-15-4.1-4-9.5-6.2-15.3-6.2-5.8 0-11.2 2.2-15.1 6L162.5 593.2c-3.9 3.9-6 9.6-5.7 16-0.3 6.2 1.8 11.9 6.1 16.1L307.2 743z" fill="" p-id="5177"></path><path d="M855.9 61.8H176.8c-60.9 0-110.5 49.5-110.5 110.5v679.1c0 60.9 49.5 110.4 110.5 110.4h679.1c60.9 0 110.5-49.5 110.5-110.4V172.2c-0.1-60.9-49.6-110.4-110.5-110.4zM116.8 282.7h799.1V851c0 33.3-26.7 60.4-59.4 60.4H176.2c-32.8 0-59.4-27.1-59.4-60.4V282.7z m59.4-170.4h680.2c32.8 0 59.4 24.6 59.4 54.7v65.1h-799V167c0-30.1 26.7-54.7 59.4-54.7z" fill="" p-id="5178"></path></svg>