<svg t="1595086045176" class="icon" viewBox="0 0 1024 1024" version="1.1" xmlns="http://www.w3.org/2000/svg" p-id="4094" width="200" height="200"><path d="M59.729 384.128h845.18v-93.919H59.729v93.919zM59.729 55.422h845.18v93.919H59.729zM59.729 618.88h349.83v-93.923H59.729v93.923zM59.729 759.741v93.919h300.498v-93.919H59.729zM968.729 686.343c-1.503-18.76-4.972-20.493-23.583-18.993-20.573 1.608-38.031-8.635-45.201-26.479-7.281-18.299-1.965-37.177 14.104-50.295 10.868-8.865 12.139-16.003 2.316-26.361-14.799-15.542-30.174-30.622-46.24-44.778-12.486-11.052-18.264-9.556-28.899 3.681-12.948 16.115-33.528 20.955-52.25 12.319-17.569-8.17-25.778-23.139-24.507-44.316 0.924-14.507-3.354-19.684-17.92-20.722-11.33-0.917-22.771-1.497-33.406-2.188-11.215 1.271-21.729 2.188-32.021 3.569-14.448 1.955-17.688 6.104-16.413 20.951 1.965 22.444-7.517 39.25-26.128 46.962-18.146 7.486-36.875 2.073-51.205-14.618-8.444-9.899-15.84-11.396-25.09-2.531-15.719 14.618-31.097 29.813-45.313 45.813-12.253 13.698-10.868 18.299 3.24 30.042 13.406 11.167 19.184 25.438 15.49 42.59-3.816 17.497-15.028 28.778-32.368 32.809-6.361 1.493-13.41 0.573-20.229 0.458-9.132-0.118-14.91 4.024-16.188 13.007-3.351 24.747-3.465 49.611 1.045 74.358 1.733 9.788 7.049 13.58 16.875 12.896 5.198-0.351 10.517-1.503 15.608-1.042 18.26 1.844 32.597 13.927 37.569 30.851 4.969 16.92-0.927 34.184-15.608 45.927-12.021 9.67-13.41 16.347-2.889 27.51 14.563 15.424 29.594 30.389 45.545 44.319 13.524 11.851 18.729 10.476 30.056-3.913 15.49-19.802 43.351-22.448 62.302-6.219 12.719 10.934 16.191 24.632 14.451 40.632-1.271 11.861 3.122 18.649 13.528 18.76 23.351 0.462 46.816 0.58 70.049-0.802 15.142-0.92 18.153-6.33 16.42-21.528-2.545-22.097 6.819-39.365 25.427-47.306 18.844-7.941 37.802-2.535 51.788 14.618 8.556 10.476 16.069 12.083 25.663 2.878 16.069-15.194 31.559-30.965 46.24-47.427 10.635-11.972 9.132-18.417-3.701-28.083-10.747-8.059-16.757-18.764-17.569-32.118-1.618-27.163 20.691-47.885 48.319-45.122 14.108 1.382 21.038-2.646 21.389-14.847 0.69-21.866 0.922-43.623-0.696-65.262zM714.042 829.534c-60.688-0.691-109.472-49.84-108.66-109.694 0.806-59.056 49.705-107.625 108.316-107.396 60.455 0.229 110.392 49.726 109.698 109.003-0.577 59.969-49.934 108.66-109.354 108.087z" p-id="4095"></path></svg>