<svg t="1605797261264" class="icon" viewBox="0 0 1024 1024" version="1.1" xmlns="http://www.w3.org/2000/svg" p-id="3488" width="200" height="200"><path d="M905.11 126.56h-97.8v-32.6q0-38.35-29.72-66.16Q747.87 0 707.6 0H21.09v836.07q0 38.36 28.77 66.16 28.77 27.81 69.03 27.81h97.8q0 38.35 29.72 66.15Q276.13 1024 316.4 1024h686.51V222.44q0-40.27-28.76-68.07-28.76-27.81-69.03-27.81z m-688.42 0v736.36h-97.8q-11.5 0-22.05-9.58-10.55-9.59-10.55-23.01V61.37H707.6q13.42 0 23 10.55 9.59 10.55 9.59 22.05v32.6h-523.5z m721.02 836.08H316.4q-13.42 0-23-10.55t-9.58-22.05V193.68h621.3q11.5 0 22.05 8.63t10.55 23.97v736.36zM609.8 699.93H414.2q-13.42 0-23.01 10.54-9.59 10.55-9.59 22.05 0 15.35 9.59 23.98t23.01 8.63h195.6q13.42 0 23.01-8.63 9.59-8.63 9.59-23.98 0-15.34-9.59-23.97-9.59-8.63-23.01-8.63zM790.05 512H414.2q-13.42 0-23.01 10.55-9.59 10.54-9.59 22.05 0 15.34 9.59 23.97 9.59 8.63 23.01 8.63h375.85q11.51 0 22.06-10.55 10.54-10.55 10.54-22.05 0-15.34-10.54-23.97-10.55-8.63-22.06-8.63z m0-191.76H414.2q-13.42 0-23.01 9.59-9.59 9.59-9.59 23.01 0 15.34 9.59 23.97 9.59 8.63 23.01 8.63h375.85q11.51 0 22.06-10.55 10.54-10.55 10.54-22.05 0-15.34-10.54-23.97-10.55-8.63-22.06-8.63z" p-id="3489"></path></svg>