<svg t="1633519685084" class="icon" viewBox="0 0 1024 1024" version="1.1" xmlns="http://www.w3.org/2000/svg" p-id="1883" width="200" height="200"><path d="M428.769735 594.836402a117.454119 117.454119 0 1 0 166.10231-166.108108 117.454119 117.454119 0 1 0-166.10231 166.108108Z" p-id="1884"></path><path d="M1023.700117 567.678251v-110.956658c0-17.992971-14.594299-32.587271-32.58727-32.58727h-45.282312c-14.69426 0-27.489262-9.796173-31.4877-23.890668-9.096447-32.987114-22.191332-64.274893-38.584928-93.463491-7.197189-12.795002-5.098009-28.788754 5.297931-39.184693l31.887543-31.887544c12.695041-12.695041 12.695041-33.386958 0-46.181961l-78.469347-78.469347c-12.695041-12.695041-33.386958-12.695041-46.181961 0l-31.787583 31.787582c-10.395939 10.395939-26.389692 12.495119-39.184693 5.297931-29.188598-16.493557-60.576337-29.688403-93.563452-38.884811-14.094494-3.898477-23.890668-16.79344-23.890668-31.387739V33.087075c0-17.992971-14.594299-32.587271-32.58727-32.58727h-110.956658c-17.992971 0-32.587271 14.594299-32.58727 32.58727v44.782507c0 14.69426-9.796173 27.489262-23.890668 31.387739-33.087075 9.196408-64.474815 22.291292-93.663413 38.884811-12.795002 7.197189-28.788754 5.098009-39.184693-5.297931l-31.687622-31.687622c-12.695041-12.695041-33.386958-12.695041-46.18196 0l-78.469348 78.469348c-12.695041 12.695041-12.695041 33.386958 0 46.181961l31.787583 31.787583c10.395939 10.395939 12.495119 26.389692 5.29793 39.184693-16.493557 29.188598-29.488481 60.576337-38.684889 93.563452-3.898477 14.194455-16.79344 23.990629-31.4877 23.990628H32.687232c-17.992971 0-32.587271 14.594299-32.587271 32.587271V567.778212c0 17.992971 14.594299 32.587271 32.587271 32.58727h45.382272c14.594299 0 27.489262 9.796173 31.387739 23.890668 9.196408 32.887153 22.291292 64.074971 38.78485 93.163608 7.29715 12.795002 5.098009 28.788754-5.297931 39.184693l-32.187426 32.187427c-12.695041 12.695041-12.695041 33.386958 0 46.18196l78.469348 78.469348c12.695041 12.695041 33.386958 12.695041 46.18196 0l32.387348-32.387348c10.395939-10.395939 26.389692-12.495119 39.184694-5.297931 28.988676 16.393596 60.276455 29.38852 93.063647 38.484967 14.094494 3.898477 23.890668 16.79344 23.890668 31.387739v45.782116c0 17.992971 14.594299 32.587271 32.58727 32.587271h110.856697c17.992971 0 32.587271-14.594299 32.58727-32.587271v-45.882077c0-14.69426 9.796173-27.489262 23.890668-31.387739 32.787193-9.096447 63.97501-22.091371 92.963686-38.484967 12.795002-7.197189 28.788754-5.098009 39.184694 5.297931l32.387348 32.387348c12.695041 12.695041 33.386958 12.695041 46.181961 0l78.469347-78.469348c12.695041-12.695041 12.695041-33.386958 0-46.18196l-32.287387-32.287388c-10.395939-10.395939-12.495119-26.389692-5.297931-39.184693 16.493557-29.088637 29.488481-60.276455 38.684889-93.063647 3.898477-14.094494 16.79344-23.890668 31.387739-23.890668h45.482234c18.092932 0 32.687232-14.594299 32.687231-32.58727zM511.800078 759.703241c-33.386958 0-65.874268-6.597423-96.56228-19.492386-29.588442-12.495119-56.078094-30.38813-78.769231-53.079266-22.691136-22.691136-40.584147-49.28075-53.079266-78.769231-12.994924-30.688012-19.492386-63.175322-19.492386-96.56228s6.597423-65.874268 19.492386-96.56228c12.495119-29.588442 30.38813-56.078094 53.079266-78.769231 22.691136-22.691136 49.28075-40.584147 78.769231-53.079266 30.688012-12.994924 63.175322-19.492386 96.56228-19.492386 33.386958 0 65.874268 6.597423 96.56228 19.492386 29.588442 12.495119 56.078094 30.38813 78.769231 53.079266 22.691136 22.691136 40.584147 49.28075 53.079266 78.769231 12.994924 30.688012 19.492386 63.175322 19.492386 96.56228s-6.597423 65.874268-19.492386 96.56228c-12.495119 29.588442-30.38813 56.078094-53.079266 78.769231-22.691136 22.691136-49.28075 40.584147-78.769231 53.079266-30.688012 12.894963-63.175322 19.492386-96.56228 19.492386z" p-id="1885"></path></svg>