<svg t="1598148873487" class="icon" viewBox="0 0 1024 1024" version="1.1" xmlns="http://www.w3.org/2000/svg" p-id="5940" width="200" height="200"><path d="M198.997333 934.186667a85.461333 85.461333 0 0 1-7.509333-7.552c2.730667 2.730667 5.034667 5.461333 7.509333 7.552z m-9.173333-5.205334z m738.901333-711.253333a35.797333 35.797333 0 0 0-24.96-10.112h-175.274666V152.661333c0-37.12-29.994667-67.328-66.944-67.328H362.410667c-36.949333 0-66.944 30.208-66.944 67.328v54.954667H119.338667A34.133333 34.133333 0 0 0 85.333333 241.834667c0 18.901333 15.189333 34.218667 34.005334 34.218666H149.333333v595.285334c0 37.12 29.994667 67.328 66.901334 67.328h601.002666c36.949333 0 66.944-30.208 66.944-67.328V276.053333h19.541334c18.688 0 34.944-15.317333 34.944-34.218666a33.749333 33.749333 0 0 0-9.941334-24.106667zM362.24 152.874667h298.965333V208.213333H362.282667V152.874667zM817.152 871.253333H216.234667V276.053333h600.917333v595.2zM511.573333 390.656a34.261333 34.261333 0 0 0-34.133333 34.389333v319.146667c0 18.986667 15.232 34.346667 34.133333 34.346667 18.901333 0 34.176-15.36 34.176-34.389334V425.045333a34.261333 34.261333 0 0 0-34.133333-34.389333z m-185.130666 0a34.261333 34.261333 0 0 0-34.176 34.389333v319.146667c0 18.986667 15.274667 34.346667 34.176 34.346667 18.901333 0 34.176-15.36 34.176-34.389334V425.045333a34.261333 34.261333 0 0 0-34.133334-34.389333z m368.384 0a34.261333 34.261333 0 0 0-34.176 34.389333v319.146667c0 18.986667 15.274667 34.346667 34.133333 34.346667 18.944 0 34.218667-15.36 34.218667-34.389334V425.045333a34.261333 34.261333 0 0 0-34.176-34.389333z" p-id="5941"></path></svg>