<svg t="1642684096822" class="icon" viewBox="0 0 1024 1024" version="1.1" xmlns="http://www.w3.org/2000/svg" p-id="9703" width="200" height="200"><path d="M218.72 77.472v144.864h144.832V77.472H218.688z m217.28 0v144.864h144.832V77.472h-144.864z m347.552 193.504l-29.408 21.664s-24.64 18.048-48.96 46.208c-24.416 28.32-51.936 68.288-51.936 118.848 0 35.552 2.912 37.216 5.792 54.304H-0.032l1.44 37.664c3.904 98.432 34.4 181.408 81.472 246.528v5.504h4.352c68.352 90.88 170.4 144.48 285.216 144.864h0.16c136.8 0 231.68-32.576 301.28-89.504 64.672-52.928 104.512-126.016 145.44-204.224 133.536-11.744 192.352-115.872 192.352-115.872l12.32-25.216-21.216-18.112s-60.544-42.304-140.288-47.808c-12.384-77.792-57.568-145.152-57.568-145.152l-21.376-29.696zM1.44 294.72v144.864h144.864V294.72H1.44z m217.28 0v144.864h144.832V294.72H218.688z m217.28 0v144.864h144.832V294.72h-144.864z m326.176 89.248c15.296 27.072 35.936 55.328 35.936 91.84v40.48l40.192-4.576c36.8-4.064 66.4 7.456 88.064 19.136-18.112 23.456-50.688 53.6-128.256 53.6h-22.08l-10.144 19.616c-43.392 84.096-82.144 151.36-137.824 196.992-55.616 45.408-129.632 73.088-255.296 73.088-73.568-0.224-139.136-25.568-189.824-72.416h108.192v-72.416H127.456a382.944 382.944 0 0 1-46.048-143.04l-0.16-1.824h667.456l-15.776-47.648s-7.232-19.2-7.232-79.072c0-21.888 15.584-49.824 34.24-71.424 1.152-1.376 1.088-1.024 2.176-2.304z m-362.4 272.864a36.224 36.224 0 0 0 0 72.448 36.224 36.224 0 0 0 0-72.448z" p-id="9704"></path></svg>