<svg t="1598148691022" class="icon" viewBox="0 0 1024 1024" version="1.1" xmlns="http://www.w3.org/2000/svg" p-id="3530" width="200" height="200"><path d="M931.3 210.66l-118-118a94.67 94.67 0 0 0-133.73 0L571.1 201.16 109.27 663A150.1 150.1 0 0 0 65 769.85V921a38 38 0 0 0 38 38h151.12A150.14 150.14 0 0 0 361 914.71L931.3 344.4a94.56 94.56 0 0 0 0-133.74zM307.25 861a74.65 74.65 0 0 1-53.13 22H141V769.85a74.6 74.6 0 0 1 22-53.12l435-434.95L742.2 426z m570.31-570.34l-81.62 81.62L651.7 228l81.62-81.61a18.58 18.58 0 0 1 26.25 0l118 118a18.57 18.57 0 0 1 0 26.26z" p-id="3531"></path></svg>