<svg t="1600176115753" class="icon" viewBox="0 0 1024 1024" version="1.1" xmlns="http://www.w3.org/2000/svg" p-id="2743" width="200" height="200"><path d="M521.309091 9.309091C237.381818 9.309091 9.309091 237.381818 9.309091 516.654545S237.381818 1024 516.654545 1024C800.581818 1024 1024 795.927273 1024 516.654545S800.581818 9.309091 521.309091 9.309091z m330.472727 660.945454c-9.309091 13.963636-18.618182 23.272727-37.236363 23.272728-4.654545 0-9.309091 0-13.963637-4.654546L498.036364 558.545455c-13.963636-4.654545-23.272727-18.618182-23.272728-37.236364V237.381818c0-18.618182 18.618182-37.236364 37.236364-37.236363s37.236364 18.618182 37.236364 37.236363v256l274.618181 125.672727c27.927273 9.309091 32.581818 32.581818 27.927273 51.2z" p-id="2744"></path></svg>