<svg t="1678028822703" class="icon" viewBox="0 0 1024 1024" version="1.1" xmlns="http://www.w3.org/2000/svg" p-id="1947" width="200" height="200"><path d="M558.452364 95.418182l7.912727 4.142545L843.403636 257.861818a108.916364 108.916364 0 0 1 54.225455 85.969455l0.325818 8.285091v316.741818c0 36.072727-17.92 69.585455-47.429818 89.786182l-6.981818 4.375272-0.139637 0.093091-277.038545 158.301091c-12.194909 6.981818-25.367273 11.496727-38.818909 13.451637a29.789091 29.789091 0 0 1-31.185455-0.046546 107.52 107.52 0 0 1-31.325091-9.495273l-7.447272-3.909818-277.038546-158.301091a108.916364 108.916364 0 0 1-54.225454-86.016l-0.325819-8.238545V352.116364c0-36.072727 17.92-69.632 47.429819-89.786182l6.981818-4.375273 0.139636-0.093091L457.588364 99.607273a108.869818 108.869818 0 0 1 100.864-4.142546zM185.716364 346.298182l-0.325819 5.818182v316.695272c0 15.685818 7.447273 30.254545 19.828364 39.563637l4.840727 3.211636 272.197819 155.508364v-350.72L185.902545 344.994909a49.338182 49.338182 0 0 0-0.186181 1.349818z m652.381091-1.024L541.649455 516.654545v350.487273l272.244363-155.554909c13.544727-7.866182 22.481455-21.597091 24.343273-36.957091l0.325818-5.818182V352.162909c0-2.327273-0.139636-4.654545-0.465454-6.888727z m-344.948364-197.166546l-5.911273 2.885819-0.093091 0.09309-260.561454 148.805819 285.649454 165.236363 285.323637-165.050182-260.701091-148.992-0.139637-0.09309a49.477818 49.477818 0 0 0-43.566545-2.885819z" fill="#333333" p-id="1948"></path></svg>