<svg t="1605709133472" class="icon" viewBox="0 0 1024 1024" version="1.1" xmlns="http://www.w3.org/2000/svg" p-id="3018" width="200" height="200"><path d="M171.12177778 670.49244445c-50.06222222-42.89422222-77.71022222-99.21422222-77.71022223-158.2648889 0-59.16444445 27.53422222-115.37066667 77.71022223-158.26488888 52.11022222-44.71466667 121.51466667-69.29066667 195.35644444-69.29066667h100.12444445v-91.02222222h-100.12444445c-200.704 0-364.08888889 142.90488889-364.08888889 318.57777777s163.38488889 318.57777778 364.08888889 318.57777778h100.12444445v-91.02222222h-100.12444445c-73.84177778-0.11377778-143.24622222-24.68977778-195.35644444-69.29066666zM657.74933333 193.536h-100.12444444v91.02222222h100.12444444c73.84177778 0 143.24622222 24.576 195.35644445 69.29066667 50.06222222 42.89422222 77.71022222 99.21422222 77.71022222 158.26488889s-27.53422222 115.37066667-77.71022222 158.26488889C800.99555555 715.09333333 731.59111111 739.66933333 657.74933333 739.66933333h-100.12444444v91.02222222h100.12444444c200.704 0 364.08888889-142.90488889 364.08888889-318.57777777s-163.38488889-318.57777778-364.08888889-318.57777778z" p-id="3019"></path><path d="M284.44444445 511.54488889c0 25.03111111 20.48 45.51111111 45.5111111 45.51111111h364.0888889c25.03111111 0 45.51111111-20.48 45.5111111-45.51111111s-20.48-45.51111111-45.5111111-45.51111111H329.95555555c-25.03111111 0-45.51111111 20.48-45.5111111 45.51111111z" p-id="3020"></path></svg>