<svg t="1598149109574" class="icon" viewBox="0 0 1024 1024" version="1.1" xmlns="http://www.w3.org/2000/svg" p-id="8091" width="200" height="200"><path d="M778.667 13h-600c-26.709 0-51.807 10.4-70.703 29.297S78.667 86.291 78.667 113v800c0 26.693 10.4 51.823 29.297 70.703 18.896 18.88 43.994 29.297 70.703 29.297h666.667c26.693 0 51.823-10.417 70.703-29.297 18.88-18.88 29.297-44.01 29.297-70.703V179.667L778.667 13z m-6.999 63.704L882.964 188H771.668V76.704z m109.017 871.648c-9.44 9.44-22.005 14.648-35.352 14.648H178.667c-13.346 0-25.895-5.208-35.352-14.648-9.44-9.44-14.648-22.005-14.648-35.352V113c0-13.346 5.208-25.895 14.648-35.352C152.771 68.208 165.32 63 178.667 63h543.001v175h173.665v675c0 13.346-5.208 25.911-14.648 35.352z" p-id="8092"></path><path d="M350.053 606.62h-97.982V432.954c0-9.863-2.246-17.22-6.755-22.038-4.508-4.85-10.384-7.259-17.66-7.259-7.161 0-12.939 2.441-17.334 7.324s-6.592 12.207-6.592 21.973v183.757c0 10.417 2.311 17.969 6.917 22.624 4.606 4.655 12.174 6.999 22.705 6.999h116.699c7.926 0 13.949-1.823 18.066-5.469 4.118-3.613 6.185-8.366 6.185-14.225 0-5.762-2.083-10.514-6.266-14.323-4.181-3.809-10.17-5.697-17.983-5.697zM558.159 418.729c-17.773-10.059-38.997-15.072-63.737-15.072-18.229 0-34.505 2.832-48.828 8.561-14.323 5.664-26.481 13.9-36.458 24.642-9.977 10.742-17.611 23.763-22.868 39.062s-7.894 32.129-7.894 50.456c0 17.904 2.523 34.57 7.568 49.967 5.046 15.397 12.5 28.581 22.38 39.551 9.88 10.97 22.184 19.434 36.947 25.488 14.762 5.99 31.462 9.017 50.13 9.017 18.766 0 35.417-2.93 49.967-8.789s26.79-14.323 36.784-25.391c9.994-11.068 17.48-24.154 22.461-39.225s7.487-31.836 7.487-50.293c0-24.967-4.557-46.68-13.672-65.202-9.115-18.488-22.559-32.746-40.267-42.772z m-4.232 155.339c-6.152 12.923-14.388 22.461-24.74 28.646-10.384 6.185-21.745 9.277-34.115 9.277-9.652 0-18.522-1.79-26.611-5.371-8.089-3.581-15.251-8.984-21.484-16.211-6.234-7.194-11.068-16.276-14.486-27.246-3.418-10.97-5.127-23.21-5.127-36.784 0-13.444 1.709-25.586 5.127-36.361 3.418-10.807 8.089-19.694 13.997-26.628s12.972-12.24 21.159-15.885c8.187-3.613 17.122-5.436 26.774-5.436 13.558 0 25.586 3.288 36.068 9.863 10.449 6.543 18.49 16.244 24.154 29.036s8.464 27.93 8.464 45.41c0 18.881-3.06 34.767-9.18 47.69zM855.75 522.798c-4.688-1.204-10.352-1.79-17.09-1.79h-54.85c-6.641 0-11.849 1.725-15.69 5.208-3.874 3.483-5.794 7.878-5.794 13.184 0 6.51 2.311 11.133 6.901 13.835 4.622 2.702 11.458 4.069 20.443 4.069h37.435v38.737c-10.091 5.436-20.052 9.603-29.883 12.533-9.798 2.93-20.312 4.395-31.478 4.395-23.014 0-40.918-7.552-53.809-22.624-12.826-15.072-19.271-36.621-19.271-64.616 0-12.923 1.66-24.674 4.948-35.319 3.32-10.645 8.105-19.596 14.323-26.953 6.25-7.292 13.77-12.891 22.559-16.732 8.789-3.874 18.783-5.794 29.948-5.794 10.84 0 19.759 1.628 26.79 4.883 6.966 3.255 12.565 7.259 16.667 12.044s9.18 11.816 15.137 21.159c2.181 2.93 4.85 5.208 8.04 6.836 3.223 1.628 6.576 2.441 10.026 2.441 6.315 0 11.686-2.148 16.211-6.413 4.492-4.297 6.738-9.473 6.738-15.56 0-5.632-1.953-12.109-5.859-19.369-3.906-7.259-9.733-14.16-17.415-20.671-7.682-6.51-17.741-11.914-30.111-16.211-12.37-4.264-26.595-6.413-42.643-6.413-19.531 0-37.012 2.832-52.409 8.561-15.397 5.664-28.483 13.9-39.225 24.642s-18.88 23.828-24.414 39.225c-5.534 15.397-8.301 32.389-8.301 50.944 0 18.88 2.832 35.97 8.561 51.27 5.664 15.299 13.867 28.32 24.479 39.062 10.612 10.742 23.503 18.945 38.574 24.577 15.072 5.632 31.803 8.464 50.13 8.464 15.723 0 30.273-1.79 43.62-5.371 13.346-3.581 27.246-9.277 41.667-17.09 4.98-2.702 9.082-5.534 12.272-8.464 3.223-2.93 5.404-6.217 6.608-9.863 1.204-3.613 1.79-8.464 1.79-14.551v-45.736c0-8.236-1.432-14.421-4.297-18.555-2.897-4.133-6.64-6.769-11.328-7.974z" p-id="8093"></path></svg>