<svg t="1595483265003" class="icon" viewBox="0 0 1024 1024" version="1.1" xmlns="http://www.w3.org/2000/svg" p-id="2298" width="200" height="200"><path d="M591.872 577.322667A341.333333 341.333333 0 0 0 128 896a42.666667 42.666667 0 0 1-85.333333 0c0-179.626667 111.018667-333.354667 268.202666-396.288a256 256 0 1 1 316.928 0c16.64 6.698667 32.810667 14.378667 48.341334 22.997333a255.232 255.232 0 0 0-84.266667 54.613334zM469.333333 469.333333a170.666667 170.666667 0 1 0 0-341.333333 170.666667 170.666667 0 0 0 0 341.333333z m145.877334 145.066667a211.712 211.712 0 0 1 100.266666-59.733333 60.586667 60.586667 0 0 0 52.522667 31.018666A60.586667 60.586667 0 0 0 820.565333 554.666667c38.698667 10.112 73.216 31.146667 100.266667 59.733333-10.24 18.773333-10.922667 42.453333 0.256 62.421333a60.586667 60.586667 0 0 0 52.309333 31.445334c5.162667 18.986667 7.936 39.04 7.936 59.733333 0 20.693333-2.773333 40.746667-7.936 59.733333a60.586667 60.586667 0 0 0-52.309333 31.445334 64.554667 64.554667 0 0 0-0.298667 62.378666A211.712 211.712 0 0 1 820.522667 981.333333 60.586667 60.586667 0 0 0 768 950.314667a60.586667 60.586667 0 0 0-52.565333 31.018666 211.712 211.712 0 0 1-100.266667-59.733333c10.24-18.773333 10.922667-42.453333-0.256-62.421333a60.586667 60.586667 0 0 0-52.309333-31.445334A226.730667 226.730667 0 0 1 554.666667 768c0-20.693333 2.773333-40.746667 7.936-59.733333a60.586667 60.586667 0 0 0 52.309333-31.445334 64.554667 64.554667 0 0 0 0.298667-62.378666z m67.541333 101.504c-9.813333 17.578667-24.746667 30.976-42.154667 38.912a141.098667 141.098667 0 0 0 0 26.368c17.450667 7.936 32.341333 21.333333 42.154667 38.912 9.898667 17.621333 13.610667 37.546667 11.349333 56.832 6.314667 4.693333 13.013333 8.704 20.053334 12.117333a90.24 90.24 0 0 1 107.733333 0 126.72 126.72 0 0 0 20.010667-12.117333 94.122667 94.122667 0 0 1 11.349333-56.832c9.813333-17.578667 24.746667-30.976 42.154667-38.912a141.098667 141.098667 0 0 0 0-26.368 91.861333 91.861333 0 0 1-42.154667-38.912 94.122667 94.122667 0 0 1-11.349333-56.832 126.72 126.72 0 0 0-20.053334-12.117333 90.24 90.24 0 0 1-107.733333 0 126.72 126.72 0 0 0-20.010667 12.117333c2.261333 19.285333-1.450667 39.210667-11.349333 56.832z" p-id="2299"></path></svg>