<svg t="1642252129376" class="icon" viewBox="0 0 1024 1024" version="1.1" xmlns="http://www.w3.org/2000/svg" p-id="18607" width="200" height="200"><path d="M512.00192 64c282.816 0 512 221.056 512 493.824 0 161.536-80.384 304.96-204.8 395.072l-0.128-0.192a37.12 37.12 0 0 1-47.552-2.88 34.688 34.688 0 0 1-10.496-24.512 34.56 34.56 0 0 1 17.664-29.952 431.424 431.424 0 0 0 97.536-99.392L832.00192 771.328a31.104 31.104 0 0 1-14.912-18.752 29.824 29.824 0 0 1 11.392-32.448 32.512 32.512 0 0 1 23.68-6.08 32.832 32.832 0 0 1 11.84 3.84l44.16 24.64c24.32-48.256 38.784-100.48 42.624-153.856h-50.752a31.36 31.36 0 0 1-32-30.848 29.632 29.632 0 0 1 9.28-21.76 32.128 32.128 0 0 1 22.72-9.088h50.752a411.904 411.904 0 0 0-42.816-154.368l-43.968 24.512a32.896 32.896 0 0 1-43.712-11.264 29.824 29.824 0 0 1-3.2-23.424A31.168 31.168 0 0 1 832.00192 343.68l43.904-24.384a435.328 435.328 0 0 0-116.608-112.448l-25.28 42.368a31.04 31.04 0 0 1-19.392 14.336 33.28 33.28 0 0 1-24.32-3.072 31.168 31.168 0 0 1-14.912-18.752 29.824 29.824 0 0 1 3.2-23.424L704.00192 175.872a448.896 448.896 0 0 0-160-41.28v49.024a29.632 29.632 0 0 1-9.344 21.76 32.192 32.192 0 0 1-22.656 9.088 31.36 31.36 0 0 1-32-30.848v-49.024a451.2 451.2 0 0 0-159.488 41.088l25.472 42.624c4.224 7.104 5.376 15.488 3.2 23.424a31.168 31.168 0 0 1-26.688 22.592 33.28 33.28 0 0 1-23.68-6.08 30.976 30.976 0 0 1-8.192-9.088l-25.536-42.624A433.6 433.6 0 0 0 148.09792 319.36L192.00192 343.68c7.36 4.16 12.736 10.88 14.912 18.752a29.888 29.888 0 0 1-11.392 32.448 32.448 32.448 0 0 1-23.68 6.144 32.832 32.832 0 0 1-11.84-3.84l-44.032-24.576a409.6 409.6 0 0 0-42.752 154.368h50.816a33.28 33.28 0 0 1 22.656 9.024 30.72 30.72 0 0 1 9.344 21.76 29.632 29.632 0 0 1-9.344 21.824 32.192 32.192 0 0 1-22.656 9.088h-50.816c3.904 53.376 18.368 105.6 42.56 153.856l44.224-24.64a32.768 32.768 0 0 1 43.712 11.328c4.224 7.04 5.376 15.488 3.2 23.36a31.168 31.168 0 0 1-14.912 18.752l-44.16 24.64a432.384 432.384 0 0 0 100.16 101.312l-0.192 0.32a33.472 33.472 0 0 1 11.52 40.96 34.56 34.56 0 0 1-19.52 18.752 36.672 36.672 0 0 1-39.488-7.744 498.688 498.688 0 0 1-147.712-173.504A477.12 477.12 0 0 1 0.00192 557.824C0.00192 285.056 229.18592 64 512.00192 64zM354.36992 400.384l125.696 94.72c9.92-4.736 20.864-7.168 31.936-7.104 39.808 0 72 31.04 72 69.44S551.80992 626.88 512.00192 626.88 440.00192 595.84 440.00192 557.44c0-4.544 0.384-8.896 1.28-13.12L315.00992 449.024a30.08 30.08 0 0 1-5.504-43.328 31.552 31.552 0 0 1 21.312-11.584 33.216 33.216 0 0 1 23.552 6.272z" p-id="18608"></path></svg>