<svg t="1649985423488" class="icon" viewBox="0 0 1024 1024" version="1.1" xmlns="http://www.w3.org/2000/svg" p-id="17309" width="200" height="200"><path d="M901.12 102.4H122.88a122.88 122.88 0 0 0-122.88 122.88v573.44a122.88 122.88 0 0 0 122.88 122.88h778.24a122.88 122.88 0 0 0 122.88-122.88V225.28a122.88 122.88 0 0 0-122.88-122.88zM182.272 870.4a163.84 163.84 0 0 1 326.4512 0zM972.8 798.72a71.68 71.68 0 0 1-71.68 71.68H559.9232a214.8352 214.8352 0 0 0-428.8512 0H122.88A71.68 71.68 0 0 1 51.2 798.72V225.28A71.68 71.68 0 0 1 122.88 153.6h778.24a71.68 71.68 0 0 1 71.68 71.68z" p-id="17310"></path><path d="M345.4976 237.7728a189.44 189.44 0 1 0 189.44 189.44 189.44 189.44 0 0 0-189.44-189.44z m0 327.68a138.24 138.24 0 1 1 138.24-138.24 138.4448 138.4448 0 0 1-138.24 138.24zM865.28 424.96h-197.0176a25.6 25.6 0 1 0 0 51.2h197.2224a25.6 25.6 0 0 0 0-51.2zM865.28 588.8h-197.0176a25.6 25.6 0 1 0 0 51.2h197.2224a25.6 25.6 0 0 0 0-51.2z" p-id="17311"></path></svg>