<svg t="1649768963504" class="icon" viewBox="0 0 1024 1024" version="1.1" xmlns="http://www.w3.org/2000/svg" p-id="6372" width="200" height="200"><path d="M60.8 336l425.6 204.8c6.4 3.2 16 6.4 22.4 6.4 6.4 0 16-3.2 22.4-6.4l425.6-204.8c22.4-9.6 35.2-28.8 35.2-48s-12.8-38.4-28.8-48L534.4 38.4c-16-6.4-32-6.4-48 0L60.8 240c-16 9.6-28.8 28.8-28.8 48s12.8 38.4 28.8 48zM512 96l400 192L512 480 112 288 512 96z" p-id="6373"></path><path d="M934.4 502.4L512 704 89.6 502.4c-16-6.4-35.2 0-41.6 16s0 35.2 16 41.6l425.6 204.8c6.4 3.2 16 6.4 22.4 6.4 6.4 0 16-3.2 22.4-6.4L960 560c16-6.4 22.4-25.6 16-41.6-6.4-19.2-25.6-25.6-41.6-16z" p-id="6374"></path><path d="M934.4 726.4L512 928 89.6 726.4c-16-6.4-35.2 0-41.6 16-6.4 16 0 35.2 16 41.6l425.6 204.8c6.4 3.2 16 6.4 22.4 6.4 6.4 0 16-3.2 22.4-6.4L960 784c16-6.4 22.4-25.6 16-41.6-6.4-19.2-25.6-25.6-41.6-16z" p-id="6375"></path></svg>