<svg t="1642250906590" class="icon" viewBox="0 0 1024 1024" version="1.1" xmlns="http://www.w3.org/2000/svg" p-id="10606" width="200" height="200"><path d="M880 640c44.183 0 80 35.817 80 80v160c0 44.183-35.817 80-80 80H144c-44.183 0-80-35.817-80-80V720c0-44.183 35.817-80 80-80h736z m-8 64H152c-13.255 0-24 10.745-24 24v144c0 13.255 10.745 24 24 24h720c13.255 0 24-10.745 24-24V728c0-13.255-10.745-24-24-24z m-272 64c15.464 0 28 14.327 28 32 0 17.673-12.536 32-28 32H425c-15.464 0-28-14.327-28-32 0-17.673 12.536-32 28-32h175zM803.591 64.138c32.727-0.083 62.205 19.775 74.422 50.136l72.778 180.862a80.628 80.628 0 0 1 3.677 11.578C958.039 315.783 960 325.662 960 336v160c0 44.183-35.817 80-80 80H144c-44.183 0-80-35.817-80-80V336a79.87 79.87 0 0 1 4.562-26.695c0.99-4.95 2.45-9.809 4.366-14.507l73.123-179.361c12.249-30.044 41.43-49.715 73.875-49.799l583.665-1.5zM872 320H152c-13.255 0-24 10.745-24 24v144c0 13.255 10.745 24 24 24h720c13.255 0 24-10.745 24-24V344c0-13.255-10.745-24-24-24z m-272 64c15.464 0 28 14.327 28 32 0 17.673-12.536 32-28 32H425c-15.464 0-28-14.327-28-32 0-17.673 12.536-32 28-32h175z m203.756-255.861l-583.666 1.5a16 16 0 0 0-14.64 9.639l-0.135 0.32L157.86 256h708.196L818.64 138.166a16 16 0 0 0-14.534-10.024l-0.35-0.003z" p-id="10607"></path></svg>