<svg t="1598188729186" class="icon" viewBox="0 0 1024 1024" version="1.1" xmlns="http://www.w3.org/2000/svg" p-id="6360" width="200" height="200"><path d="M525.356522 701.217391c0 24.486957-20.034783 44.521739-44.521739 44.521739H44.521739c-24.486957 0-44.521739-20.034783-44.521739-44.521739s20.034783-44.521739 44.521739-44.521739h436.313044c24.486957 0 44.521739 20.034783 44.521739 44.521739zM979.478261 656.695652h-37.843478c-24.486957 0-44.521739 20.034783-44.52174 44.521739s20.034783 44.521739 44.52174 44.521739H979.478261c24.486957 0 44.521739-20.034783 44.521739-44.521739s-20.034783-44.521739-44.521739-44.521739zM159.165217 321.669565c0-73.46087 60.104348-132.452174 133.565218-132.452174s133.565217 60.104348 133.565217 132.452174-60.104348 132.452174-133.565217 132.452174-133.565217-58.991304-133.565218-132.452174z m89.043479 0c0 24.486957 20.034783 43.408696 44.521739 43.408696s44.521739-20.034783 44.521739-43.408696-20.034783-43.408696-44.521739-43.408695-44.521739 20.034783-44.521739 43.408695z m591.026087 380.66087c0 73.46087-60.104348 132.452174-133.565218 132.452174s-133.565217-60.104348-133.565217-132.452174 60.104348-132.452174 133.565217-132.452174c73.46087-1.113043 133.565217 58.991304 133.565218 132.452174z m-89.043479 0c0-24.486957-20.034783-43.408696-44.521739-43.408696s-44.521739 20.034783-44.521739 43.408696 20.034783 43.408696 44.521739 43.408695 44.521739-20.034783 44.521739-43.408695zM44.521739 367.304348h25.6c24.486957 0 44.521739-20.034783 44.521739-44.521739s-20.034783-44.521739-44.521739-44.521739H44.521739c-24.486957 0-44.521739 20.034783-44.521739 44.521739s20.034783 44.521739 44.521739 44.521739z m979.478261-44.521739c0-24.486957-20.034783-44.521739-44.521739-44.521739H526.469565c-24.486957 0-44.521739 20.034783-44.521739 44.521739s20.034783 44.521739 44.521739 44.521739H979.478261c24.486957 0 44.521739-20.034783 44.521739-44.521739z" p-id="6361"></path></svg>