<svg t="1600180415435" class="icon" viewBox="0 0 1024 1024" version="1.1" xmlns="http://www.w3.org/2000/svg" p-id="6994" width="200" height="200"><path d="M923.784551 143.79934c-12.331368-11.152193-28.59998-17.247926-45.408214-17.247926-1.538923 0-3.057859 0-4.596782 0.09993-0.919356 0.09993-11.631858 0.739482-28.360148 0.739482-27.720596 0-81.84271-1.898671-133.106825-13.990207-66.193664-15.669032-142.580194-88.258219-164.804637-102.568202C536.335765 3.577496 523.424803 0 510.51384 0c-12.87099 0-25.761967 3.577496-36.934146 10.732487-2.698111 1.778755-82.682123 84.161087-160.927351 102.668132-51.244129 12.091536-106.38553 13.990207-134.066154 13.990207-16.72829 0-27.400819-0.639552-28.460078-0.739482-1.458979-0.09993-2.897971-0.09993-4.396922-0.09993-16.82822 0-33.136804 6.095733-45.52813 17.247926C86.750475 155.890876 79.095833 172.819027 79.095833 190.606575l0 160.207855c0 592.225442 402.598181 668.492056 419.666234 671.529929 3.917258 0.639552 7.854502 0.939342 11.791746 0.939342 3.917258 0 7.894474-0.319776 11.751774-0.939342 17.088038-3.057859 422.644149-79.304487 422.644149-671.529929L944.949735 190.606575C944.949735 172.819027 937.255121 155.890876 923.784551 143.79934zM774.968722 372.898971 495.844109 641.650844c-1.738783 2.838013-3.877286 5.676027-6.475467 8.094334-8.194264 7.894474-19.026681 11.67183-29.759169 11.47197-10.732487 0.219846-21.544919-3.577496-29.719197-11.47197-2.598181-2.418307-4.75667-5.256321-6.495453-8.094334l-149.155591-143.69941c-15.888878-15.249325-15.888878-39.97202 0-55.321275 15.888878-15.249325 41.650844-15.249325 57.519736 0l127.870491 123.173778L717.468972 317.577696c15.888878-15.249325 41.610872-15.249325 57.49975 0C790.837614 332.827021 790.837614 357.649645 774.968722 372.898971z" p-id="6995"></path></svg>