<svg t="1608341629784" class="icon" viewBox="0 0 1024 1024" version="1.1" xmlns="http://www.w3.org/2000/svg" p-id="3907" width="200" height="200"><path d="M845.6448 525.3376v361.8816a55.6288 55.6288 0 0 1-55.7056 55.7056h-166.5536V663.5264c0-15.3856-12.4416-27.776-27.8016-27.776h-166.9888c-15.3344 0-27.776 12.3904-27.776 27.776v279.296H234.1376a55.6288 55.6288 0 0 1-55.6544-55.68V525.3376H122.2912v417.3568c0 30.7968 17.92 55.7056 48.6656 55.7056h237.1584v-0.896h48.384V677.4784h110.4896l0.7936 319.9232h48.4096v0.8448h237.184c30.7456 0 48.6656-24.9088 48.6656-55.7056V525.3376h-56.3968zM512.0768 25.6c-7.424 0-14.8224 2.6624-19.9424 8.1408l-477.44 493.7216a27.8528 27.8528 0 0 0 39.9872 38.7584L512.0768 93.056l457.344 473.1136a27.6736 27.6736 0 0 0 39.2192 0.6144c11.0848-10.752 11.3152-28.3136 0.6144-39.3472L532.096 33.6128A27.904 27.904 0 0 0 512.0768 25.6z" p-id="3908"></path></svg>