<svg t="1623682636341" class="icon" viewBox="0 0 1024 1024" version="1.1" xmlns="http://www.w3.org/2000/svg" p-id="43122" width="200" height="200"><path d="M511.488 1009.13152a29.88544 29.88544 0 0 1-20.87424-8.41728l-247.17824-161.3568c-92.78976-46.81216-150.38976-140.40576-150.35904-244.34688V226.77504a66.62144 66.62144 0 0 1 44.79488-63.01184L496.08192 18.73408a31.88736 31.88736 0 0 1 31.82592 0l358.47168 145.13664c26.55744 9.18528 44.5696 34.5088 44.53888 62.90944v368.2304c0 103.92064-57.59488 197.48352-150.35392 244.2752l-247.17824 161.37728a29.97248 29.97248 0 0 1-16.32768 8.05888l-0.09728 0.34304-5.47328 0.06656zM159.63136 220.17536c-0.62464 0.24576-1.1776 0.45568-1.75616 0.65024a6.31808 6.31808 0 0 0-4.39296 6.00576v368.1792c-0.29696 80.52224 46.18752 155.4688 118.4256 190.97088 1.10592 0.55296 2.14528 1.16224 3.13856 1.83296l236.94336 154.71616 236.9792-154.76736a26.3168 26.3168 0 0 1 3.00032-1.75616c72.28928-35.52768 118.76864-110.47936 118.4768-190.98112V226.77504c0-2.72384-1.7408-5.12512-4.3264-5.98016a29.39904 29.39904 0 0 1-1.86368-0.69632L511.98976 77.46048l-352.3584 142.71488z" p-id="43123"></path><path d="M533.17632 542.36672c-80.72704 0-146.17088-65.43872-146.17088-146.17088 0-80.72704 65.44384-146.16576 146.17088-146.16576s146.17088 65.43872 146.17088 146.16576c-0.09216 80.6912-65.47968 146.07872-146.17088 146.17088z m0-241.08544c-52.42368 0-94.91968 42.50112-94.91968 94.92992s42.496 94.9248 94.91968 94.9248 94.92992-42.496 94.92992-94.9248v-0.01536c-0.06656-52.4032-42.53184-94.85824-94.92992-94.91456z" p-id="43124"></path><path d="M535.36768 791.21408a25.62048 25.62048 0 0 1-25.62048-25.62048v-250.67008a25.62048 25.62048 0 1 1 51.23584-0.04096V765.5936a25.61536 25.61536 0 0 1-25.61536 25.62048z" p-id="43125"></path><path d="M619.33056 624.55808h-69.77024a25.62048 25.62048 0 1 1 0-51.23584h69.77024a25.61536 25.61536 0 1 1 0 51.23584z" p-id="43126"></path></svg>