<svg t="1642821388396" class="icon" viewBox="0 0 1024 1024" version="1.1" xmlns="http://www.w3.org/2000/svg" p-id="17298" width="200" height="200"><path d="M617.073778 756.622222c-56.32 0-109.283556-13.653333-156.444445-37.262222L393.102222 786.944l27.249778 27.249778a56.149333 56.149333 0 0 1 0 79.36l-15.928889 15.928889a56.149333 56.149333 0 0 1-79.36 0l-27.192889-27.306667-58.424889 58.424889a88.177778 88.177778 0 0 1-124.814222 0l-31.175111-31.175111a88.177778 88.177778 0 0 1 0-124.814222l221.297778-221.240889a347.591111 347.591111 0 0 1-37.262222-156.330667 349.582222 349.582222 0 1 1 349.582222 349.582222zM353.848889 425.358222c0 61.326222 10.695111 114.346667 41.756444 162.247111l-244.053333 237.397334c-19.854222 19.797333-21.276444 34.304-7.224889 51.768889 15.701333 18.204444 34.702222 7.68 54.556445-12.174223l71.68-69.233777 70.826666 69.233777a18.659556 18.659556 0 0 0 26.396445 0l5.290666-5.290666a18.716444 18.716444 0 0 0 0-26.453334l-70.542222-72.419555 135.395556-130.161778c47.843556 31.118222 108.487111 51.541333 169.813333 51.541333 181.589333 0 272.497778-122.766222 281.713778-269.482666 8.874667-140.8-128.227556-269.710222-258.616889-269.710223-161.564444 0-276.992 113.834667-276.992 282.737778z m263.224889 134.599111a152.917333 152.917333 0 1 1-0.056889-305.834666 152.917333 152.917333 0 0 1 0 305.834666zM529.863111 407.04a87.210667 87.210667 0 1 0 174.364445 0 87.210667 87.210667 0 0 0-174.364445 0z" p-id="17299"></path></svg>