<svg t="1595124857395" class="icon" viewBox="0 0 1024 1024" version="1.1" xmlns="http://www.w3.org/2000/svg" p-id="5123" width="200" height="200"><path d="M512 448c79 0 152.8-7.2 221.5-21.5C802.2 412.2 856.3 391 896 363v85c0 23-17.2 44.4-51.5 64-34.3 19.7-80.9 35.3-140 46.8-59 11.4-123.2 17.2-192.5 17.2s-133.5-5.8-192.5-17.3-105.7-27.1-140-46.8-51.5-41-51.5-64v-85c39.6 28 93.8 49.2 162.5 63.5C359.2 440.8 433 448 512 448z m0 384c79 0 152.8-7.2 221.5-21.5S856.3 775 896 747v85c0 23-17.2 44.4-51.5 64-34.3 19.7-80.9 35.3-140 46.8-59 11.4-123.2 17.2-192.5 17.2s-133.4-5.8-192.5-17.2c-59.1-11.5-105.7-27.1-140-46.8S128 855 128 832v-85c39.6 28 93.8 49.2 162.5 63.5C359.2 824.8 433 832 512 832z m0-191.9c79 0 152.8-7.2 221.5-21.5C802.2 604.2 856.3 583 896 555v85c0 23-17.2 44.3-51.5 64-34.3 19.7-80.9 35.2-140 46.8-59 11.5-123.2 17.2-192.5 17.2s-133.5-5.8-192.5-17.3c-59.1-11.5-105.7-27.1-140-46.8s-51.5-41-51.5-64v-85c39.6 28 93.8 49.2 162.5 63.5 68.7 14.5 142.5 21.7 221.5 21.7zM512 64c69.3 0 133.5 5.8 192.5 17.3 59.1 11.5 105.7 27.1 140 46.8 34.3 19.7 51.5 41 51.5 64v64c0 23-17.2 44.3-51.5 64-34.3 19.7-80.9 35.2-140 46.8C645.4 378.3 581.3 384 512 384s-133.5-5.8-192.5-17.3c-59.1-11.5-105.7-27.1-140-46.8s-51.5-41-51.5-64v-64c0-23 17.2-44.4 51.5-64 34.3-19.7 80.9-35.3 140-46.8C378.6 69.8 442.7 64 512 64z" p-id="5124"></path></svg>