<svg t="1598773886576" class="icon" viewBox="0 0 1024 1024" version="1.1" xmlns="http://www.w3.org/2000/svg" p-id="11372" width="200" height="200"><path d="M944 80H80A48.085333 48.085333 0 0 0 32 128v784A48.085333 48.085333 0 0 0 80 960h864a48.085333 48.085333 0 0 0 48-48V128a48.085333 48.085333 0 0 0-48-48zM928 896H96V144h832z" p-id="11373"></path><path d="M231.936 565.248l146.901333-165.333333-146.901333-165.162667-47.829333 42.538667 109.098666 122.666666-109.098666 122.794667 47.829333 42.496zM432 480h256v64h-256v-64z" p-id="11374"></path></svg>