<svg t="1595084551996" class="icon" viewBox="0 0 1024 1024" version="1.1" xmlns="http://www.w3.org/2000/svg" p-id="2702" width="200" height="200"><path d="M860.8 822.4l-25.6-38.4 76.8-44.8V278.4l-230.4-134.4 22.4-38.4 252.8 147.2v512zM112 556.8H67.2V256l454.4-256 102.4 57.6-22.4 41.6-80-48L112 281.6zM512 1020.8L67.2 768v-124.8h44.8v99.2L512 969.6l259.2-147.2 22.4 38.4z" fill="" p-id="2703"></path><path d="M483.2 297.6L384 240V204.8L515.2 128l128 76.8v35.2l-96 57.6-3.2 35.2-28.8-19.2-32 19.2zM684.8 528v-115.2l-99.2-57.6V320l128-73.6 131.2 73.6v150.4L713.6 544zM384 816v-147.2l28.8-19.2 99.2 57.6 102.4-57.6 28.8 16v150.4L512 892.8zM684.8 758.4v-115.2l-32-19.2 32-16v-35.2l28.8 19.2 99.2-57.6 32 16v150.4l-131.2 73.6z" fill="" p-id="2704"></path><path d="M384 585.6v-150.4l131.2-73.6 128 73.6v150.4L512 659.2zM179.2 700.8l3.2-150.4 28.8-16 99.2 57.6 32-19.2V608l32 19.2-32 16v115.2l-32 16z" fill="" p-id="2705"></path><path d="M179.2 470.4l3.2-150.4 131.2-73.6 128 73.6v35.2l-99.2 57.6v112l-32 19.2z" fill="" p-id="2706"></path></svg>