<svg t="1642252348077" class="icon" viewBox="0 0 1024 1024" version="1.1" xmlns="http://www.w3.org/2000/svg" p-id="24806" width="200" height="200"><path d="M480 480H192C102.4 480 32 409.6 32 320v-128C32 102.4 102.4 32 192 32h128c89.6 0 160 70.4 160 160v288zM192 96c-51.2 0-96 44.8-96 96v128c0 51.2 44.8 96 96 96h224V192c0-51.2-44.8-96-96-96h-128z m128 896h-128C102.4 992 32 921.6 32 832v-128c0-89.6 70.4-160 160-160h288v288c0 89.6-70.4 160-160 160z m-128-384c-51.2 0-96 44.8-96 96v128c0 51.2 44.8 96 96 96h128c51.2 0 96-44.8 96-96V608H192z m640-128H544V192c0-89.6 70.4-160 160-160h128c89.6 0 160 70.4 160 160v128c0 89.6-70.4 160-160 160z m-224-64h224c51.2 0 96-44.8 96-96v-128c0-51.2-44.8-96-96-96h-128c-51.2 0-96 44.8-96 96v224z m224 576h-128c-89.6 0-160-70.4-160-160V544h288c89.6 0 160 70.4 160 160v128c0 89.6-70.4 160-160 160zM608 608v224c0 51.2 44.8 96 96 96h128c51.2 0 96-44.8 96-96v-128c0-51.2-44.8-96-96-96H608z" p-id="24807"></path></svg>