<svg t="1608126608770" class="icon" viewBox="0 0 1024 1024" version="1.1" xmlns="http://www.w3.org/2000/svg" p-id="6378" width="200" height="200"><path d="M937.888 815.104c-40.64-58.464-175.2-222.656-342.528-392.352 95.84-97.664 203.36-194.336 318.208-279.264 0 0 25.44-23.68 14.592-44.224-13.568-25.696-45.856-13.696-45.856-13.696-130.272 64.256-254.016 159.616-365.344 261.12C404.64 241.312 277.504 140.384 142.112 69.696c0 0-35.072-16.064-62.272 5.696-30.912 27.712-8.992 53.664-8.992 53.664C197.92 222.944 316.384 330.88 420.224 439.072 260.864 598.368 122.304 743.36 70.272 817.984 55.232 839.616 44.736 876.8 89.6 921.44c45.824 45.6 109.216 18.624 126.752-4.64 77.216-102.368 142.816-234.88 283.168-391.872C640.032 682.88 721.248 849.184 793.728 932.992 814.272 956.768 863.2 981.6 927.2 928.16c45.024-37.568 20.32-99.2 10.688-113.056z" p-id="6379"></path></svg>